# xmcd
#
# Track frame offsets:
#	150
#	17886
#	54279
#	110017
#	153892
#
# Disc length: 2327 seconds
#
# Revision: 1
# Processed by: cddbd v1.5.2PL0 Copyright (c) Steve Scherf et al.
# Submitted via: audiograbber 1.83.01
#
DISCID=34091505
DTITLE=Grateful Dead - 79-09-06 Madison Square Garden, New York NY
DYEAR=1900
DGENRE=
TTITLE0=Space
TTITLE1=Not Fade Away
TTITLE2=Stella Blue
TTITLE3=Sugar Magnolia
TTITLE4=Johnny B Goode
EXTD=
EXTT0=
EXTT1=
EXTT2=
EXTT3=
EXTT4=
PLAYORDER=
